<?xml version="1.0" encoding="utf-8"?>
<svg xmlns="http://www.w3.org/2000/svg" xmlns:xlink="http://www.w3.org/1999/xlink" width="600" height="400" viewBox="0 0 2400 1600">
<defs>
  <clipPath id="clip1300">
    <rect x="0" y="0" width="2400" height="1600"/>
  </clipPath>
</defs>
<polygon clip-path="url(#clip1300)" points="
0,1600 2400,1600 2400,0 0,0 
  " fill="#ffffff" fill-rule="evenodd" fill-opacity="1"/>
<defs>
  <clipPath id="clip1301">
    <rect x="480" y="0" width="1681" height="1600"/>
  </clipPath>
</defs>
<polygon clip-path="url(#clip1300)" points="
153.898,1487.47 2352.76,1487.47 2352.76,47.2441 153.898,47.2441 
  " fill="#ffffff" fill-rule="evenodd" fill-opacity="1"/>
<defs>
  <clipPath id="clip1302">
    <rect x="153" y="47" width="2200" height="1441"/>
  </clipPath>
</defs>
<polyline clip-path="url(#clip1302)" style="stroke:#000000; stroke-width:2; stroke-opacity:0.1; fill:none" points="
  155.024,1487.47 155.024,47.2441 
  "/>
<polyline clip-path="url(#clip1302)" style="stroke:#000000; stroke-width:2; stroke-opacity:0.1; fill:none" points="
  654.253,1487.47 654.253,47.2441 
  "/>
<polyline clip-path="url(#clip1302)" style="stroke:#000000; stroke-width:2; stroke-opacity:0.1; fill:none" points="
  1153.48,1487.47 1153.48,47.2441 
  "/>
<polyline clip-path="url(#clip1302)" style="stroke:#000000; stroke-width:2; stroke-opacity:0.1; fill:none" points="
  1652.71,1487.47 1652.71,47.2441 
  "/>
<polyline clip-path="url(#clip1302)" style="stroke:#000000; stroke-width:2; stroke-opacity:0.1; fill:none" points="
  2151.94,1487.47 2151.94,47.2441 
  "/>
<polyline clip-path="url(#clip1302)" style="stroke:#000000; stroke-width:2; stroke-opacity:0.1; fill:none" points="
  153.898,1446.71 2352.76,1446.71 
  "/>
<polyline clip-path="url(#clip1302)" style="stroke:#000000; stroke-width:2; stroke-opacity:0.1; fill:none" points="
  153.898,1157.78 2352.76,1157.78 
  "/>
<polyline clip-path="url(#clip1302)" style="stroke:#000000; stroke-width:2; stroke-opacity:0.1; fill:none" points="
  153.898,868.856 2352.76,868.856 
  "/>
<polyline clip-path="url(#clip1302)" style="stroke:#000000; stroke-width:2; stroke-opacity:0.1; fill:none" points="
  153.898,579.928 2352.76,579.928 
  "/>
<polyline clip-path="url(#clip1302)" style="stroke:#000000; stroke-width:2; stroke-opacity:0.1; fill:none" points="
  153.898,290.999 2352.76,290.999 
  "/>
<polyline clip-path="url(#clip1300)" style="stroke:#000000; stroke-width:4; stroke-opacity:1; fill:none" points="
  153.898,1487.47 2352.76,1487.47 
  "/>
<polyline clip-path="url(#clip1300)" style="stroke:#000000; stroke-width:4; stroke-opacity:1; fill:none" points="
  153.898,1487.47 153.898,47.2441 
  "/>
<polyline clip-path="url(#clip1300)" style="stroke:#000000; stroke-width:4; stroke-opacity:1; fill:none" points="
  155.024,1487.47 155.024,1465.87 
  "/>
<polyline clip-path="url(#clip1300)" style="stroke:#000000; stroke-width:4; stroke-opacity:1; fill:none" points="
  654.253,1487.47 654.253,1465.87 
  "/>
<polyline clip-path="url(#clip1300)" style="stroke:#000000; stroke-width:4; stroke-opacity:1; fill:none" points="
  1153.48,1487.47 1153.48,1465.87 
  "/>
<polyline clip-path="url(#clip1300)" style="stroke:#000000; stroke-width:4; stroke-opacity:1; fill:none" points="
  1652.71,1487.47 1652.71,1465.87 
  "/>
<polyline clip-path="url(#clip1300)" style="stroke:#000000; stroke-width:4; stroke-opacity:1; fill:none" points="
  2151.94,1487.47 2151.94,1465.87 
  "/>
<polyline clip-path="url(#clip1300)" style="stroke:#000000; stroke-width:4; stroke-opacity:1; fill:none" points="
  153.898,1446.71 186.881,1446.71 
  "/>
<polyline clip-path="url(#clip1300)" style="stroke:#000000; stroke-width:4; stroke-opacity:1; fill:none" points="
  153.898,1157.78 186.881,1157.78 
  "/>
<polyline clip-path="url(#clip1300)" style="stroke:#000000; stroke-width:4; stroke-opacity:1; fill:none" points="
  153.898,868.856 186.881,868.856 
  "/>
<polyline clip-path="url(#clip1300)" style="stroke:#000000; stroke-width:4; stroke-opacity:1; fill:none" points="
  153.898,579.928 186.881,579.928 
  "/>
<polyline clip-path="url(#clip1300)" style="stroke:#000000; stroke-width:4; stroke-opacity:1; fill:none" points="
  153.898,290.999 186.881,290.999 
  "/>
<g clip-path="url(#clip1300)">
<text style="fill:#000000; fill-opacity:1; font-family:Arial,Helvetica Neue,Helvetica,sans-serif; font-size:48px; text-anchor:middle;" transform="rotate(0, 155.024, 1541.47)" x="155.024" y="1541.47">0.0</text>
</g>
<g clip-path="url(#clip1300)">
<text style="fill:#000000; fill-opacity:1; font-family:Arial,Helvetica Neue,Helvetica,sans-serif; font-size:48px; text-anchor:middle;" transform="rotate(0, 654.253, 1541.47)" x="654.253" y="1541.47">2.5</text>
</g>
<g clip-path="url(#clip1300)">
<text style="fill:#000000; fill-opacity:1; font-family:Arial,Helvetica Neue,Helvetica,sans-serif; font-size:48px; text-anchor:middle;" transform="rotate(0, 1153.48, 1541.47)" x="1153.48" y="1541.47">5.0</text>
</g>
<g clip-path="url(#clip1300)">
<text style="fill:#000000; fill-opacity:1; font-family:Arial,Helvetica Neue,Helvetica,sans-serif; font-size:48px; text-anchor:middle;" transform="rotate(0, 1652.71, 1541.47)" x="1652.71" y="1541.47">7.5</text>
</g>
<g clip-path="url(#clip1300)">
<text style="fill:#000000; fill-opacity:1; font-family:Arial,Helvetica Neue,Helvetica,sans-serif; font-size:48px; text-anchor:middle;" transform="rotate(0, 2151.94, 1541.47)" x="2151.94" y="1541.47">10.0</text>
</g>
<g clip-path="url(#clip1300)">
<text style="fill:#000000; fill-opacity:1; font-family:Arial,Helvetica Neue,Helvetica,sans-serif; font-size:48px; text-anchor:end;" transform="rotate(0, 129.898, 1464.21)" x="129.898" y="1464.21">0.0</text>
</g>
<g clip-path="url(#clip1300)">
<text style="fill:#000000; fill-opacity:1; font-family:Arial,Helvetica Neue,Helvetica,sans-serif; font-size:48px; text-anchor:end;" transform="rotate(0, 129.898, 1175.28)" x="129.898" y="1175.28">0.2</text>
</g>
<g clip-path="url(#clip1300)">
<text style="fill:#000000; fill-opacity:1; font-family:Arial,Helvetica Neue,Helvetica,sans-serif; font-size:48px; text-anchor:end;" transform="rotate(0, 129.898, 886.356)" x="129.898" y="886.356">0.4</text>
</g>
<g clip-path="url(#clip1300)">
<text style="fill:#000000; fill-opacity:1; font-family:Arial,Helvetica Neue,Helvetica,sans-serif; font-size:48px; text-anchor:end;" transform="rotate(0, 129.898, 597.428)" x="129.898" y="597.428">0.6</text>
</g>
<g clip-path="url(#clip1300)">
<text style="fill:#000000; fill-opacity:1; font-family:Arial,Helvetica Neue,Helvetica,sans-serif; font-size:48px; text-anchor:end;" transform="rotate(0, 129.898, 308.499)" x="129.898" y="308.499">0.8</text>
</g>
<polygon clip-path="url(#clip1302)" points="
274.839,336.581 274.839,1446.71 434.592,1446.71 434.592,336.581 274.839,336.581 274.839,336.581 
  " fill="#009af9" fill-rule="evenodd" fill-opacity="1"/>
<polyline clip-path="url(#clip1302)" style="stroke:#000000; stroke-width:4; stroke-opacity:1; fill:none" points="
  274.839,336.581 274.839,1446.71 434.592,1446.71 434.592,336.581 274.839,336.581 
  "/>
<polygon clip-path="url(#clip1302)" points="
474.53,88.0053 474.53,1446.71 634.284,1446.71 634.284,88.0053 474.53,88.0053 474.53,88.0053 
  " fill="#009af9" fill-rule="evenodd" fill-opacity="1"/>
<polyline clip-path="url(#clip1302)" style="stroke:#000000; stroke-width:4; stroke-opacity:1; fill:none" points="
  474.53,88.0053 474.53,1446.71 634.284,1446.71 634.284,88.0053 474.53,88.0053 
  "/>
<polygon clip-path="url(#clip1302)" points="
674.222,473.084 674.222,1446.71 833.975,1446.71 833.975,473.084 674.222,473.084 674.222,473.084 
  " fill="#009af9" fill-rule="evenodd" fill-opacity="1"/>
<polyline clip-path="url(#clip1302)" style="stroke:#000000; stroke-width:4; stroke-opacity:1; fill:none" points="
  674.222,473.084 674.222,1446.71 833.975,1446.71 833.975,473.084 674.222,473.084 
  "/>
<polygon clip-path="url(#clip1302)" points="
873.913,875.425 873.913,1446.71 1033.67,1446.71 1033.67,875.425 873.913,875.425 873.913,875.425 
  " fill="#009af9" fill-rule="evenodd" fill-opacity="1"/>
<polyline clip-path="url(#clip1302)" style="stroke:#000000; stroke-width:4; stroke-opacity:1; fill:none" points="
  873.913,875.425 873.913,1446.71 1033.67,1446.71 1033.67,875.425 873.913,875.425 
  "/>
<polygon clip-path="url(#clip1302)" points="
1073.6,994.188 1073.6,1446.71 1233.36,1446.71 1233.36,994.188 1073.6,994.188 1073.6,994.188 
  " fill="#009af9" fill-rule="evenodd" fill-opacity="1"/>
<polyline clip-path="url(#clip1302)" style="stroke:#000000; stroke-width:4; stroke-opacity:1; fill:none" points="
  1073.6,994.188 1073.6,1446.71 1233.36,1446.71 1233.36,994.188 1073.6,994.188 
  "/>
<polygon clip-path="url(#clip1302)" points="
1273.3,489.558 1273.3,1446.71 1433.05,1446.71 1433.05,489.558 1273.3,489.558 1273.3,489.558 
  " fill="#009af9" fill-rule="evenodd" fill-opacity="1"/>
<polyline clip-path="url(#clip1302)" style="stroke:#000000; stroke-width:4; stroke-opacity:1; fill:none" points="
  1273.3,489.558 1273.3,1446.71 1433.05,1446.71 1433.05,489.558 1273.3,489.558 
  "/>
<polygon clip-path="url(#clip1302)" points="
1472.99,600.121 1472.99,1446.71 1632.74,1446.71 1632.74,600.121 1472.99,600.121 1472.99,600.121 
  " fill="#009af9" fill-rule="evenodd" fill-opacity="1"/>
<polyline clip-path="url(#clip1302)" style="stroke:#000000; stroke-width:4; stroke-opacity:1; fill:none" points="
  1472.99,600.121 1472.99,1446.71 1632.74,1446.71 1632.74,600.121 1472.99,600.121 
  "/>
<polygon clip-path="url(#clip1302)" points="
1672.68,1371.4 1672.68,1446.71 1832.43,1446.71 1832.43,1371.4 1672.68,1371.4 1672.68,1371.4 
  " fill="#009af9" fill-rule="evenodd" fill-opacity="1"/>
<polyline clip-path="url(#clip1302)" style="stroke:#000000; stroke-width:4; stroke-opacity:1; fill:none" points="
  1672.68,1371.4 1672.68,1446.71 1832.43,1446.71 1832.43,1371.4 1672.68,1371.4 
  "/>
<polygon clip-path="url(#clip1302)" points="
1872.37,1058.63 1872.37,1446.71 2032.12,1446.71 2032.12,1058.63 1872.37,1058.63 1872.37,1058.63 
  " fill="#009af9" fill-rule="evenodd" fill-opacity="1"/>
<polyline clip-path="url(#clip1302)" style="stroke:#000000; stroke-width:4; stroke-opacity:1; fill:none" points="
  1872.37,1058.63 1872.37,1446.71 2032.12,1446.71 2032.12,1058.63 1872.37,1058.63 
  "/>
<polygon clip-path="url(#clip1302)" points="
2072.06,1289.43 2072.06,1446.71 2231.81,1446.71 2231.81,1289.43 2072.06,1289.43 2072.06,1289.43 
  " fill="#009af9" fill-rule="evenodd" fill-opacity="1"/>
<polyline clip-path="url(#clip1302)" style="stroke:#000000; stroke-width:4; stroke-opacity:1; fill:none" points="
  2072.06,1289.43 2072.06,1446.71 2231.81,1446.71 2231.81,1289.43 2072.06,1289.43 
  "/>
<polygon clip-path="url(#clip1302)" points="
274.839,1210.27 274.839,1446.71 434.592,1446.71 434.592,1210.27 274.839,1210.27 274.839,1210.27 
  " fill="#e26f46" fill-rule="evenodd" fill-opacity="1"/>
<polyline clip-path="url(#clip1302)" style="stroke:#000000; stroke-width:4; stroke-opacity:1; fill:none" points="
  274.839,1210.27 274.839,1446.71 434.592,1446.71 434.592,1210.27 274.839,1210.27 
  "/>
<polygon clip-path="url(#clip1302)" points="
474.53,763.373 474.53,1446.71 634.284,1446.71 634.284,763.373 474.53,763.373 474.53,763.373 
  " fill="#e26f46" fill-rule="evenodd" fill-opacity="1"/>
<polyline clip-path="url(#clip1302)" style="stroke:#000000; stroke-width:4; stroke-opacity:1; fill:none" points="
  474.53,763.373 474.53,1446.71 634.284,1446.71 634.284,763.373 474.53,763.373 
  "/>
<polygon clip-path="url(#clip1302)" points="
674.222,196.502 674.222,1446.71 833.975,1446.71 833.975,196.502 674.222,196.502 674.222,196.502 
  " fill="#e26f46" fill-rule="evenodd" fill-opacity="1"/>
<polyline clip-path="url(#clip1302)" style="stroke:#000000; stroke-width:4; stroke-opacity:1; fill:none" points="
  674.222,196.502 674.222,1446.71 833.975,1446.71 833.975,196.502 674.222,196.502 
  "/>
<polygon clip-path="url(#clip1302)" points="
873.913,554.658 873.913,1446.71 1033.67,1446.71 1033.67,554.658 873.913,554.658 873.913,554.658 
  " fill="#e26f46" fill-rule="evenodd" fill-opacity="1"/>
<polyline clip-path="url(#clip1302)" style="stroke:#000000; stroke-width:4; stroke-opacity:1; fill:none" points="
  873.913,554.658 873.913,1446.71 1033.67,1446.71 1033.67,554.658 873.913,554.658 
  "/>
<polygon clip-path="url(#clip1302)" points="
1073.6,1033.98 1073.6,1446.71 1233.36,1446.71 1233.36,1033.98 1073.6,1033.98 1073.6,1033.98 
  " fill="#e26f46" fill-rule="evenodd" fill-opacity="1"/>
<polyline clip-path="url(#clip1302)" style="stroke:#000000; stroke-width:4; stroke-opacity:1; fill:none" points="
  1073.6,1033.98 1073.6,1446.71 1233.36,1446.71 1233.36,1033.98 1073.6,1033.98 
  "/>
<polygon clip-path="url(#clip1302)" points="
1273.3,776.62 1273.3,1446.71 1433.05,1446.71 1433.05,776.62 1273.3,776.62 1273.3,776.62 
  " fill="#e26f46" fill-rule="evenodd" fill-opacity="1"/>
<polyline clip-path="url(#clip1302)" style="stroke:#000000; stroke-width:4; stroke-opacity:1; fill:none" points="
  1273.3,776.62 1273.3,1446.71 1433.05,1446.71 1433.05,776.62 1273.3,776.62 
  "/>
<polygon clip-path="url(#clip1302)" points="
1472.99,1048.25 1472.99,1446.71 1632.74,1446.71 1632.74,1048.25 1472.99,1048.25 1472.99,1048.25 
  " fill="#e26f46" fill-rule="evenodd" fill-opacity="1"/>
<polyline clip-path="url(#clip1302)" style="stroke:#000000; stroke-width:4; stroke-opacity:1; fill:none" points="
  1472.99,1048.25 1472.99,1446.71 1632.74,1446.71 1632.74,1048.25 1472.99,1048.25 
  "/>
<polygon clip-path="url(#clip1302)" points="
1672.68,801.582 1672.68,1446.71 1832.43,1446.71 1832.43,801.582 1672.68,801.582 1672.68,801.582 
  " fill="#e26f46" fill-rule="evenodd" fill-opacity="1"/>
<polyline clip-path="url(#clip1302)" style="stroke:#000000; stroke-width:4; stroke-opacity:1; fill:none" points="
  1672.68,801.582 1672.68,1446.71 1832.43,1446.71 1832.43,801.582 1672.68,801.582 
  "/>
<polygon clip-path="url(#clip1302)" points="
1872.37,605.472 1872.37,1446.71 2032.12,1446.71 2032.12,605.472 1872.37,605.472 1872.37,605.472 
  " fill="#e26f46" fill-rule="evenodd" fill-opacity="1"/>
<polyline clip-path="url(#clip1302)" style="stroke:#000000; stroke-width:4; stroke-opacity:1; fill:none" points="
  1872.37,605.472 1872.37,1446.71 2032.12,1446.71 2032.12,605.472 1872.37,605.472 
  "/>
<polygon clip-path="url(#clip1302)" points="
2072.06,1076.91 2072.06,1446.71 2231.81,1446.71 2231.81,1076.91 2072.06,1076.91 2072.06,1076.91 
  " fill="#e26f46" fill-rule="evenodd" fill-opacity="1"/>
<polyline clip-path="url(#clip1302)" style="stroke:#000000; stroke-width:4; stroke-opacity:1; fill:none" points="
  2072.06,1076.91 2072.06,1446.71 2231.81,1446.71 2231.81,1076.91 2072.06,1076.91 
  "/>
<polygon clip-path="url(#clip1300)" points="
1971.2,312.204 2280.76,312.204 2280.76,130.764 1971.2,130.764 
  " fill="#ffffff" fill-rule="evenodd" fill-opacity="1"/>
<polyline clip-path="url(#clip1300)" style="stroke:#000000; stroke-width:4; stroke-opacity:1; fill:none" points="
  1971.2,312.204 2280.76,312.204 2280.76,130.764 1971.2,130.764 1971.2,312.204 
  "/>
<polygon clip-path="url(#clip1300)" points="
1995.2,215.436 2139.2,215.436 2139.2,167.052 1995.2,167.052 1995.2,215.436 
  " fill="#009af9" fill-rule="evenodd" fill-opacity="1"/>
<polyline clip-path="url(#clip1300)" style="stroke:#000000; stroke-width:4; stroke-opacity:1; fill:none" points="
  1995.2,215.436 2139.2,215.436 2139.2,167.052 1995.2,167.052 1995.2,215.436 
  "/>
<g clip-path="url(#clip1300)">
<text style="fill:#000000; fill-opacity:1; font-family:Arial,Helvetica Neue,Helvetica,sans-serif; font-size:48px; text-anchor:start;" transform="rotate(0, 2163.2, 208.744)" x="2163.2" y="208.744">foo</text>
</g>
<polygon clip-path="url(#clip1300)" points="
1995.2,275.916 2139.2,275.916 2139.2,227.532 1995.2,227.532 1995.2,275.916 
  " fill="#e26f46" fill-rule="evenodd" fill-opacity="1"/>
<polyline clip-path="url(#clip1300)" style="stroke:#000000; stroke-width:4; stroke-opacity:1; fill:none" points="
  1995.2,275.916 2139.2,275.916 2139.2,227.532 1995.2,227.532 1995.2,275.916 
  "/>
<g clip-path="url(#clip1300)">
<text style="fill:#000000; fill-opacity:1; font-family:Arial,Helvetica Neue,Helvetica,sans-serif; font-size:48px; text-anchor:start;" transform="rotate(0, 2163.2, 269.224)" x="2163.2" y="269.224">bar</text>
</g>
</svg>
