<?xml version="1.0" encoding="utf-8"?>
<svg xmlns="http://www.w3.org/2000/svg" xmlns:xlink="http://www.w3.org/1999/xlink" width="600" height="400" viewBox="0 0 2400 1600">
<defs>
  <clipPath id="clip0900">
    <rect x="0" y="0" width="2400" height="1600"/>
  </clipPath>
</defs>
<polygon clip-path="url(#clip0900)" points="
0,1600 2400,1600 2400,0 0,0 
  " fill="#ffffff" fill-rule="evenodd" fill-opacity="1"/>
<defs>
  <clipPath id="clip0901">
    <rect x="480" y="0" width="1681" height="1600"/>
  </clipPath>
</defs>
<polygon clip-path="url(#clip0900)" points="
215.754,1425.62 2352.76,1425.62 2352.76,47.2441 215.754,47.2441 
  " fill="#ffffff" fill-rule="evenodd" fill-opacity="1"/>
<defs>
  <clipPath id="clip0902">
    <rect x="215" y="47" width="2138" height="1379"/>
  </clipPath>
</defs>
<polyline clip-path="url(#clip0902)" style="stroke:#000000; stroke-width:2; stroke-opacity:0.1; fill:none" points="
  668.243,1425.62 668.243,47.2441 
  "/>
<polyline clip-path="url(#clip0902)" style="stroke:#000000; stroke-width:2; stroke-opacity:0.1; fill:none" points="
  1228.25,1425.62 1228.25,47.2441 
  "/>
<polyline clip-path="url(#clip0902)" style="stroke:#000000; stroke-width:2; stroke-opacity:0.1; fill:none" points="
  1788.26,1425.62 1788.26,47.2441 
  "/>
<polyline clip-path="url(#clip0902)" style="stroke:#000000; stroke-width:2; stroke-opacity:0.1; fill:none" points="
  2348.28,1425.62 2348.28,47.2441 
  "/>
<polyline clip-path="url(#clip0902)" style="stroke:#000000; stroke-width:2; stroke-opacity:0.1; fill:none" points="
  215.754,1386.61 2352.76,1386.61 
  "/>
<polyline clip-path="url(#clip0902)" style="stroke:#000000; stroke-width:2; stroke-opacity:0.1; fill:none" points="
  215.754,1115.7 2352.76,1115.7 
  "/>
<polyline clip-path="url(#clip0902)" style="stroke:#000000; stroke-width:2; stroke-opacity:0.1; fill:none" points="
  215.754,844.794 2352.76,844.794 
  "/>
<polyline clip-path="url(#clip0902)" style="stroke:#000000; stroke-width:2; stroke-opacity:0.1; fill:none" points="
  215.754,573.887 2352.76,573.887 
  "/>
<polyline clip-path="url(#clip0902)" style="stroke:#000000; stroke-width:2; stroke-opacity:0.1; fill:none" points="
  215.754,302.98 2352.76,302.98 
  "/>
<polyline clip-path="url(#clip0900)" style="stroke:#000000; stroke-width:4; stroke-opacity:1; fill:none" points="
  215.754,1425.62 2352.76,1425.62 
  "/>
<polyline clip-path="url(#clip0900)" style="stroke:#000000; stroke-width:4; stroke-opacity:1; fill:none" points="
  215.754,1425.62 215.754,47.2441 
  "/>
<polyline clip-path="url(#clip0900)" style="stroke:#000000; stroke-width:4; stroke-opacity:1; fill:none" points="
  668.243,1425.62 668.243,1404.94 
  "/>
<polyline clip-path="url(#clip0900)" style="stroke:#000000; stroke-width:4; stroke-opacity:1; fill:none" points="
  1228.25,1425.62 1228.25,1404.94 
  "/>
<polyline clip-path="url(#clip0900)" style="stroke:#000000; stroke-width:4; stroke-opacity:1; fill:none" points="
  1788.26,1425.62 1788.26,1404.94 
  "/>
<polyline clip-path="url(#clip0900)" style="stroke:#000000; stroke-width:4; stroke-opacity:1; fill:none" points="
  2348.28,1425.62 2348.28,1404.94 
  "/>
<polyline clip-path="url(#clip0900)" style="stroke:#000000; stroke-width:4; stroke-opacity:1; fill:none" points="
  215.754,1386.61 247.809,1386.61 
  "/>
<polyline clip-path="url(#clip0900)" style="stroke:#000000; stroke-width:4; stroke-opacity:1; fill:none" points="
  215.754,1115.7 247.809,1115.7 
  "/>
<polyline clip-path="url(#clip0900)" style="stroke:#000000; stroke-width:4; stroke-opacity:1; fill:none" points="
  215.754,844.794 247.809,844.794 
  "/>
<polyline clip-path="url(#clip0900)" style="stroke:#000000; stroke-width:4; stroke-opacity:1; fill:none" points="
  215.754,573.887 247.809,573.887 
  "/>
<polyline clip-path="url(#clip0900)" style="stroke:#000000; stroke-width:4; stroke-opacity:1; fill:none" points="
  215.754,302.98 247.809,302.98 
  "/>
<g clip-path="url(#clip0900)">
<text style="fill:#000000; fill-opacity:1; font-family:Arial,Helvetica Neue,Helvetica,sans-serif; font-size:48px; text-anchor:middle;" transform="rotate(0, 668.243, 1479.62)" x="668.243" y="1479.62">5</text>
</g>
<g clip-path="url(#clip0900)">
<text style="fill:#000000; fill-opacity:1; font-family:Arial,Helvetica Neue,Helvetica,sans-serif; font-size:48px; text-anchor:middle;" transform="rotate(0, 1228.25, 1479.62)" x="1228.25" y="1479.62">6</text>
</g>
<g clip-path="url(#clip0900)">
<text style="fill:#000000; fill-opacity:1; font-family:Arial,Helvetica Neue,Helvetica,sans-serif; font-size:48px; text-anchor:middle;" transform="rotate(0, 1788.26, 1479.62)" x="1788.26" y="1479.62">7</text>
</g>
<g clip-path="url(#clip0900)">
<text style="fill:#000000; fill-opacity:1; font-family:Arial,Helvetica Neue,Helvetica,sans-serif; font-size:48px; text-anchor:middle;" transform="rotate(0, 2348.28, 1479.62)" x="2348.28" y="1479.62">8</text>
</g>
<g clip-path="url(#clip0900)">
<text style="fill:#000000; fill-opacity:1; font-family:Arial,Helvetica Neue,Helvetica,sans-serif; font-size:48px; text-anchor:end;" transform="rotate(0, 191.754, 1404.11)" x="191.754" y="1404.11">2.0</text>
</g>
<g clip-path="url(#clip0900)">
<text style="fill:#000000; fill-opacity:1; font-family:Arial,Helvetica Neue,Helvetica,sans-serif; font-size:48px; text-anchor:end;" transform="rotate(0, 191.754, 1133.2)" x="191.754" y="1133.2">2.5</text>
</g>
<g clip-path="url(#clip0900)">
<text style="fill:#000000; fill-opacity:1; font-family:Arial,Helvetica Neue,Helvetica,sans-serif; font-size:48px; text-anchor:end;" transform="rotate(0, 191.754, 862.294)" x="191.754" y="862.294">3.0</text>
</g>
<g clip-path="url(#clip0900)">
<text style="fill:#000000; fill-opacity:1; font-family:Arial,Helvetica Neue,Helvetica,sans-serif; font-size:48px; text-anchor:end;" transform="rotate(0, 191.754, 591.387)" x="191.754" y="591.387">3.5</text>
</g>
<g clip-path="url(#clip0900)">
<text style="fill:#000000; fill-opacity:1; font-family:Arial,Helvetica Neue,Helvetica,sans-serif; font-size:48px; text-anchor:end;" transform="rotate(0, 191.754, 320.48)" x="191.754" y="320.48">4.0</text>
</g>
<g clip-path="url(#clip0900)">
<text style="fill:#000000; fill-opacity:1; font-family:Arial,Helvetica Neue,Helvetica,sans-serif; font-size:66px; text-anchor:middle;" transform="rotate(0, 1284.25, 1559.48)" x="1284.25" y="1559.48">SepalLength</text>
</g>
<g clip-path="url(#clip0900)">
<text style="fill:#000000; fill-opacity:1; font-family:Arial,Helvetica Neue,Helvetica,sans-serif; font-size:66px; text-anchor:middle;" transform="rotate(-90, 89.2861, 736.431)" x="89.2861" y="736.431">SepalWidth</text>
</g>
<circle clip-path="url(#clip0902)" style="fill:#000000; stroke:none; fill-opacity:1" cx="724.244" cy="573.887" r="10"/>
<circle clip-path="url(#clip0902)" style="fill:#009af9; stroke:none; fill-opacity:1" cx="724.244" cy="573.887" r="7"/>
<circle clip-path="url(#clip0902)" style="fill:#000000; stroke:none; fill-opacity:1" cx="612.242" cy="844.794" r="10"/>
<circle clip-path="url(#clip0902)" style="fill:#009af9; stroke:none; fill-opacity:1" cx="612.242" cy="844.794" r="7"/>
<circle clip-path="url(#clip0902)" style="fill:#000000; stroke:none; fill-opacity:1" cx="500.24" cy="736.431" r="10"/>
<circle clip-path="url(#clip0902)" style="fill:#009af9; stroke:none; fill-opacity:1" cx="500.24" cy="736.431" r="7"/>
<circle clip-path="url(#clip0902)" style="fill:#000000; stroke:none; fill-opacity:1" cx="444.239" cy="790.613" r="10"/>
<circle clip-path="url(#clip0902)" style="fill:#009af9; stroke:none; fill-opacity:1" cx="444.239" cy="790.613" r="7"/>
<circle clip-path="url(#clip0902)" style="fill:#000000; stroke:none; fill-opacity:1" cx="668.243" cy="519.706" r="10"/>
<circle clip-path="url(#clip0902)" style="fill:#009af9; stroke:none; fill-opacity:1" cx="668.243" cy="519.706" r="7"/>
<circle clip-path="url(#clip0902)" style="fill:#000000; stroke:none; fill-opacity:1" cx="892.247" cy="357.162" r="10"/>
<circle clip-path="url(#clip0902)" style="fill:#009af9; stroke:none; fill-opacity:1" cx="892.247" cy="357.162" r="7"/>
<circle clip-path="url(#clip0902)" style="fill:#000000; stroke:none; fill-opacity:1" cx="444.239" cy="628.069" r="10"/>
<circle clip-path="url(#clip0902)" style="fill:#009af9; stroke:none; fill-opacity:1" cx="444.239" cy="628.069" r="7"/>
<circle clip-path="url(#clip0902)" style="fill:#000000; stroke:none; fill-opacity:1" cx="668.243" cy="628.069" r="10"/>
<circle clip-path="url(#clip0902)" style="fill:#009af9; stroke:none; fill-opacity:1" cx="668.243" cy="628.069" r="7"/>
<circle clip-path="url(#clip0902)" style="fill:#000000; stroke:none; fill-opacity:1" cx="332.236" cy="898.976" r="10"/>
<circle clip-path="url(#clip0902)" style="fill:#009af9; stroke:none; fill-opacity:1" cx="332.236" cy="898.976" r="7"/>
<circle clip-path="url(#clip0902)" style="fill:#000000; stroke:none; fill-opacity:1" cx="612.242" cy="790.613" r="10"/>
<circle clip-path="url(#clip0902)" style="fill:#009af9; stroke:none; fill-opacity:1" cx="612.242" cy="790.613" r="7"/>
<circle clip-path="url(#clip0902)" style="fill:#000000; stroke:none; fill-opacity:1" cx="892.247" cy="465.524" r="10"/>
<circle clip-path="url(#clip0902)" style="fill:#009af9; stroke:none; fill-opacity:1" cx="892.247" cy="465.524" r="7"/>
<circle clip-path="url(#clip0902)" style="fill:#000000; stroke:none; fill-opacity:1" cx="556.241" cy="628.069" r="10"/>
<circle clip-path="url(#clip0902)" style="fill:#009af9; stroke:none; fill-opacity:1" cx="556.241" cy="628.069" r="7"/>
<circle clip-path="url(#clip0902)" style="fill:#000000; stroke:none; fill-opacity:1" cx="556.241" cy="844.794" r="10"/>
<circle clip-path="url(#clip0902)" style="fill:#009af9; stroke:none; fill-opacity:1" cx="556.241" cy="844.794" r="7"/>
<circle clip-path="url(#clip0902)" style="fill:#000000; stroke:none; fill-opacity:1" cx="276.235" cy="844.794" r="10"/>
<circle clip-path="url(#clip0902)" style="fill:#009af9; stroke:none; fill-opacity:1" cx="276.235" cy="844.794" r="7"/>
<circle clip-path="url(#clip0902)" style="fill:#000000; stroke:none; fill-opacity:1" cx="1116.25" cy="302.98" r="10"/>
<circle clip-path="url(#clip0902)" style="fill:#009af9; stroke:none; fill-opacity:1" cx="1116.25" cy="302.98" r="7"/>
<circle clip-path="url(#clip0902)" style="fill:#000000; stroke:none; fill-opacity:1" cx="1060.25" cy="86.2547" r="10"/>
<circle clip-path="url(#clip0902)" style="fill:#009af9; stroke:none; fill-opacity:1" cx="1060.25" cy="86.2547" r="7"/>
<circle clip-path="url(#clip0902)" style="fill:#000000; stroke:none; fill-opacity:1" cx="892.247" cy="357.162" r="10"/>
<circle clip-path="url(#clip0902)" style="fill:#009af9; stroke:none; fill-opacity:1" cx="892.247" cy="357.162" r="7"/>
<circle clip-path="url(#clip0902)" style="fill:#000000; stroke:none; fill-opacity:1" cx="724.244" cy="573.887" r="10"/>
<circle clip-path="url(#clip0902)" style="fill:#009af9; stroke:none; fill-opacity:1" cx="724.244" cy="573.887" r="7"/>
<circle clip-path="url(#clip0902)" style="fill:#000000; stroke:none; fill-opacity:1" cx="1060.25" cy="411.343" r="10"/>
<circle clip-path="url(#clip0902)" style="fill:#009af9; stroke:none; fill-opacity:1" cx="1060.25" cy="411.343" r="7"/>
<circle clip-path="url(#clip0902)" style="fill:#000000; stroke:none; fill-opacity:1" cx="724.244" cy="411.343" r="10"/>
<circle clip-path="url(#clip0902)" style="fill:#009af9; stroke:none; fill-opacity:1" cx="724.244" cy="411.343" r="7"/>
<circle clip-path="url(#clip0902)" style="fill:#000000; stroke:none; fill-opacity:1" cx="892.247" cy="628.069" r="10"/>
<circle clip-path="url(#clip0902)" style="fill:#009af9; stroke:none; fill-opacity:1" cx="892.247" cy="628.069" r="7"/>
<circle clip-path="url(#clip0902)" style="fill:#000000; stroke:none; fill-opacity:1" cx="724.244" cy="465.524" r="10"/>
<circle clip-path="url(#clip0902)" style="fill:#009af9; stroke:none; fill-opacity:1" cx="724.244" cy="465.524" r="7"/>
<circle clip-path="url(#clip0902)" style="fill:#000000; stroke:none; fill-opacity:1" cx="444.239" cy="519.706" r="10"/>
<circle clip-path="url(#clip0902)" style="fill:#009af9; stroke:none; fill-opacity:1" cx="444.239" cy="519.706" r="7"/>
<circle clip-path="url(#clip0902)" style="fill:#000000; stroke:none; fill-opacity:1" cx="724.244" cy="682.25" r="10"/>
<circle clip-path="url(#clip0902)" style="fill:#009af9; stroke:none; fill-opacity:1" cx="724.244" cy="682.25" r="7"/>
<circle clip-path="url(#clip0902)" style="fill:#000000; stroke:none; fill-opacity:1" cx="556.241" cy="628.069" r="10"/>
<circle clip-path="url(#clip0902)" style="fill:#009af9; stroke:none; fill-opacity:1" cx="556.241" cy="628.069" r="7"/>
<circle clip-path="url(#clip0902)" style="fill:#000000; stroke:none; fill-opacity:1" cx="668.243" cy="844.794" r="10"/>
<circle clip-path="url(#clip0902)" style="fill:#009af9; stroke:none; fill-opacity:1" cx="668.243" cy="844.794" r="7"/>
<circle clip-path="url(#clip0902)" style="fill:#000000; stroke:none; fill-opacity:1" cx="668.243" cy="628.069" r="10"/>
<circle clip-path="url(#clip0902)" style="fill:#009af9; stroke:none; fill-opacity:1" cx="668.243" cy="628.069" r="7"/>
<circle clip-path="url(#clip0902)" style="fill:#000000; stroke:none; fill-opacity:1" cx="780.245" cy="573.887" r="10"/>
<circle clip-path="url(#clip0902)" style="fill:#009af9; stroke:none; fill-opacity:1" cx="780.245" cy="573.887" r="7"/>
<circle clip-path="url(#clip0902)" style="fill:#000000; stroke:none; fill-opacity:1" cx="780.245" cy="628.069" r="10"/>
<circle clip-path="url(#clip0902)" style="fill:#009af9; stroke:none; fill-opacity:1" cx="780.245" cy="628.069" r="7"/>
<circle clip-path="url(#clip0902)" style="fill:#000000; stroke:none; fill-opacity:1" cx="500.24" cy="736.431" r="10"/>
<circle clip-path="url(#clip0902)" style="fill:#009af9; stroke:none; fill-opacity:1" cx="500.24" cy="736.431" r="7"/>
<circle clip-path="url(#clip0902)" style="fill:#000000; stroke:none; fill-opacity:1" cx="556.241" cy="790.613" r="10"/>
<circle clip-path="url(#clip0902)" style="fill:#009af9; stroke:none; fill-opacity:1" cx="556.241" cy="790.613" r="7"/>
<circle clip-path="url(#clip0902)" style="fill:#000000; stroke:none; fill-opacity:1" cx="892.247" cy="628.069" r="10"/>
<circle clip-path="url(#clip0902)" style="fill:#009af9; stroke:none; fill-opacity:1" cx="892.247" cy="628.069" r="7"/>
<circle clip-path="url(#clip0902)" style="fill:#000000; stroke:none; fill-opacity:1" cx="780.245" cy="248.799" r="10"/>
<circle clip-path="url(#clip0902)" style="fill:#009af9; stroke:none; fill-opacity:1" cx="780.245" cy="248.799" r="7"/>
<circle clip-path="url(#clip0902)" style="fill:#000000; stroke:none; fill-opacity:1" cx="948.248" cy="194.617" r="10"/>
<circle clip-path="url(#clip0902)" style="fill:#009af9; stroke:none; fill-opacity:1" cx="948.248" cy="194.617" r="7"/>
<circle clip-path="url(#clip0902)" style="fill:#000000; stroke:none; fill-opacity:1" cx="612.242" cy="790.613" r="10"/>
<circle clip-path="url(#clip0902)" style="fill:#009af9; stroke:none; fill-opacity:1" cx="612.242" cy="790.613" r="7"/>
<circle clip-path="url(#clip0902)" style="fill:#000000; stroke:none; fill-opacity:1" cx="668.243" cy="736.431" r="10"/>
<circle clip-path="url(#clip0902)" style="fill:#009af9; stroke:none; fill-opacity:1" cx="668.243" cy="736.431" r="7"/>
<circle clip-path="url(#clip0902)" style="fill:#000000; stroke:none; fill-opacity:1" cx="948.248" cy="573.887" r="10"/>
<circle clip-path="url(#clip0902)" style="fill:#009af9; stroke:none; fill-opacity:1" cx="948.248" cy="573.887" r="7"/>
<circle clip-path="url(#clip0902)" style="fill:#000000; stroke:none; fill-opacity:1" cx="612.242" cy="519.706" r="10"/>
<circle clip-path="url(#clip0902)" style="fill:#009af9; stroke:none; fill-opacity:1" cx="612.242" cy="519.706" r="7"/>
<circle clip-path="url(#clip0902)" style="fill:#000000; stroke:none; fill-opacity:1" cx="332.236" cy="844.794" r="10"/>
<circle clip-path="url(#clip0902)" style="fill:#009af9; stroke:none; fill-opacity:1" cx="332.236" cy="844.794" r="7"/>
<circle clip-path="url(#clip0902)" style="fill:#000000; stroke:none; fill-opacity:1" cx="724.244" cy="628.069" r="10"/>
<circle clip-path="url(#clip0902)" style="fill:#009af9; stroke:none; fill-opacity:1" cx="724.244" cy="628.069" r="7"/>
<circle clip-path="url(#clip0902)" style="fill:#000000; stroke:none; fill-opacity:1" cx="668.243" cy="573.887" r="10"/>
<circle clip-path="url(#clip0902)" style="fill:#009af9; stroke:none; fill-opacity:1" cx="668.243" cy="573.887" r="7"/>
<circle clip-path="url(#clip0902)" style="fill:#000000; stroke:none; fill-opacity:1" cx="388.237" cy="1224.06" r="10"/>
<circle clip-path="url(#clip0902)" style="fill:#009af9; stroke:none; fill-opacity:1" cx="388.237" cy="1224.06" r="7"/>
<circle clip-path="url(#clip0902)" style="fill:#000000; stroke:none; fill-opacity:1" cx="332.236" cy="736.431" r="10"/>
<circle clip-path="url(#clip0902)" style="fill:#009af9; stroke:none; fill-opacity:1" cx="332.236" cy="736.431" r="7"/>
<circle clip-path="url(#clip0902)" style="fill:#000000; stroke:none; fill-opacity:1" cx="668.243" cy="573.887" r="10"/>
<circle clip-path="url(#clip0902)" style="fill:#009af9; stroke:none; fill-opacity:1" cx="668.243" cy="573.887" r="7"/>
<circle clip-path="url(#clip0902)" style="fill:#000000; stroke:none; fill-opacity:1" cx="724.244" cy="411.343" r="10"/>
<circle clip-path="url(#clip0902)" style="fill:#009af9; stroke:none; fill-opacity:1" cx="724.244" cy="411.343" r="7"/>
<circle clip-path="url(#clip0902)" style="fill:#000000; stroke:none; fill-opacity:1" cx="556.241" cy="844.794" r="10"/>
<circle clip-path="url(#clip0902)" style="fill:#009af9; stroke:none; fill-opacity:1" cx="556.241" cy="844.794" r="7"/>
<circle clip-path="url(#clip0902)" style="fill:#000000; stroke:none; fill-opacity:1" cx="724.244" cy="411.343" r="10"/>
<circle clip-path="url(#clip0902)" style="fill:#009af9; stroke:none; fill-opacity:1" cx="724.244" cy="411.343" r="7"/>
<circle clip-path="url(#clip0902)" style="fill:#000000; stroke:none; fill-opacity:1" cx="444.239" cy="736.431" r="10"/>
<circle clip-path="url(#clip0902)" style="fill:#009af9; stroke:none; fill-opacity:1" cx="444.239" cy="736.431" r="7"/>
<circle clip-path="url(#clip0902)" style="fill:#000000; stroke:none; fill-opacity:1" cx="836.246" cy="465.524" r="10"/>
<circle clip-path="url(#clip0902)" style="fill:#009af9; stroke:none; fill-opacity:1" cx="836.246" cy="465.524" r="7"/>
<circle clip-path="url(#clip0902)" style="fill:#000000; stroke:none; fill-opacity:1" cx="668.243" cy="682.25" r="10"/>
<circle clip-path="url(#clip0902)" style="fill:#009af9; stroke:none; fill-opacity:1" cx="668.243" cy="682.25" r="7"/>
<circle clip-path="url(#clip0902)" style="fill:#000000; stroke:none; fill-opacity:1" cx="1788.26" cy="736.431" r="10"/>
<circle clip-path="url(#clip0902)" style="fill:#009af9; stroke:none; fill-opacity:1" cx="1788.26" cy="736.431" r="7"/>
<circle clip-path="url(#clip0902)" style="fill:#000000; stroke:none; fill-opacity:1" cx="1452.26" cy="736.431" r="10"/>
<circle clip-path="url(#clip0902)" style="fill:#009af9; stroke:none; fill-opacity:1" cx="1452.26" cy="736.431" r="7"/>
<circle clip-path="url(#clip0902)" style="fill:#000000; stroke:none; fill-opacity:1" cx="1732.26" cy="790.613" r="10"/>
<circle clip-path="url(#clip0902)" style="fill:#009af9; stroke:none; fill-opacity:1" cx="1732.26" cy="790.613" r="7"/>
<circle clip-path="url(#clip0902)" style="fill:#000000; stroke:none; fill-opacity:1" cx="948.248" cy="1224.06" r="10"/>
<circle clip-path="url(#clip0902)" style="fill:#009af9; stroke:none; fill-opacity:1" cx="948.248" cy="1224.06" r="7"/>
<circle clip-path="url(#clip0902)" style="fill:#000000; stroke:none; fill-opacity:1" cx="1508.26" cy="953.157" r="10"/>
<circle clip-path="url(#clip0902)" style="fill:#009af9; stroke:none; fill-opacity:1" cx="1508.26" cy="953.157" r="7"/>
<circle clip-path="url(#clip0902)" style="fill:#000000; stroke:none; fill-opacity:1" cx="1060.25" cy="953.157" r="10"/>
<circle clip-path="url(#clip0902)" style="fill:#009af9; stroke:none; fill-opacity:1" cx="1060.25" cy="953.157" r="7"/>
<circle clip-path="url(#clip0902)" style="fill:#000000; stroke:none; fill-opacity:1" cx="1396.26" cy="682.25" r="10"/>
<circle clip-path="url(#clip0902)" style="fill:#009af9; stroke:none; fill-opacity:1" cx="1396.26" cy="682.25" r="7"/>
<circle clip-path="url(#clip0902)" style="fill:#000000; stroke:none; fill-opacity:1" cx="612.242" cy="1169.88" r="10"/>
<circle clip-path="url(#clip0902)" style="fill:#009af9; stroke:none; fill-opacity:1" cx="612.242" cy="1169.88" r="7"/>
<circle clip-path="url(#clip0902)" style="fill:#000000; stroke:none; fill-opacity:1" cx="1564.26" cy="898.976" r="10"/>
<circle clip-path="url(#clip0902)" style="fill:#009af9; stroke:none; fill-opacity:1" cx="1564.26" cy="898.976" r="7"/>
<circle clip-path="url(#clip0902)" style="fill:#000000; stroke:none; fill-opacity:1" cx="780.245" cy="1007.34" r="10"/>
<circle clip-path="url(#clip0902)" style="fill:#009af9; stroke:none; fill-opacity:1" cx="780.245" cy="1007.34" r="7"/>
<circle clip-path="url(#clip0902)" style="fill:#000000; stroke:none; fill-opacity:1" cx="668.243" cy="1386.61" r="10"/>
<circle clip-path="url(#clip0902)" style="fill:#009af9; stroke:none; fill-opacity:1" cx="668.243" cy="1386.61" r="7"/>
<circle clip-path="url(#clip0902)" style="fill:#000000; stroke:none; fill-opacity:1" cx="1172.25" cy="844.794" r="10"/>
<circle clip-path="url(#clip0902)" style="fill:#009af9; stroke:none; fill-opacity:1" cx="1172.25" cy="844.794" r="7"/>
<circle clip-path="url(#clip0902)" style="fill:#000000; stroke:none; fill-opacity:1" cx="1228.25" cy="1278.25" r="10"/>
<circle clip-path="url(#clip0902)" style="fill:#009af9; stroke:none; fill-opacity:1" cx="1228.25" cy="1278.25" r="7"/>
<circle clip-path="url(#clip0902)" style="fill:#000000; stroke:none; fill-opacity:1" cx="1284.25" cy="898.976" r="10"/>
<circle clip-path="url(#clip0902)" style="fill:#009af9; stroke:none; fill-opacity:1" cx="1284.25" cy="898.976" r="7"/>
<circle clip-path="url(#clip0902)" style="fill:#000000; stroke:none; fill-opacity:1" cx="1004.25" cy="898.976" r="10"/>
<circle clip-path="url(#clip0902)" style="fill:#009af9; stroke:none; fill-opacity:1" cx="1004.25" cy="898.976" r="7"/>
<circle clip-path="url(#clip0902)" style="fill:#000000; stroke:none; fill-opacity:1" cx="1620.26" cy="790.613" r="10"/>
<circle clip-path="url(#clip0902)" style="fill:#009af9; stroke:none; fill-opacity:1" cx="1620.26" cy="790.613" r="7"/>
<circle clip-path="url(#clip0902)" style="fill:#000000; stroke:none; fill-opacity:1" cx="1004.25" cy="844.794" r="10"/>
<circle clip-path="url(#clip0902)" style="fill:#009af9; stroke:none; fill-opacity:1" cx="1004.25" cy="844.794" r="7"/>
<circle clip-path="url(#clip0902)" style="fill:#000000; stroke:none; fill-opacity:1" cx="1116.25" cy="1007.34" r="10"/>
<circle clip-path="url(#clip0902)" style="fill:#009af9; stroke:none; fill-opacity:1" cx="1116.25" cy="1007.34" r="7"/>
<circle clip-path="url(#clip0902)" style="fill:#000000; stroke:none; fill-opacity:1" cx="1340.26" cy="1278.25" r="10"/>
<circle clip-path="url(#clip0902)" style="fill:#009af9; stroke:none; fill-opacity:1" cx="1340.26" cy="1278.25" r="7"/>
<circle clip-path="url(#clip0902)" style="fill:#000000; stroke:none; fill-opacity:1" cx="1004.25" cy="1115.7" r="10"/>
<circle clip-path="url(#clip0902)" style="fill:#009af9; stroke:none; fill-opacity:1" cx="1004.25" cy="1115.7" r="7"/>
<circle clip-path="url(#clip0902)" style="fill:#000000; stroke:none; fill-opacity:1" cx="1172.25" cy="736.431" r="10"/>
<circle clip-path="url(#clip0902)" style="fill:#009af9; stroke:none; fill-opacity:1" cx="1172.25" cy="736.431" r="7"/>
<circle clip-path="url(#clip0902)" style="fill:#000000; stroke:none; fill-opacity:1" cx="1284.25" cy="953.157" r="10"/>
<circle clip-path="url(#clip0902)" style="fill:#009af9; stroke:none; fill-opacity:1" cx="1284.25" cy="953.157" r="7"/>
<circle clip-path="url(#clip0902)" style="fill:#000000; stroke:none; fill-opacity:1" cx="1396.26" cy="1115.7" r="10"/>
<circle clip-path="url(#clip0902)" style="fill:#009af9; stroke:none; fill-opacity:1" cx="1396.26" cy="1115.7" r="7"/>
<circle clip-path="url(#clip0902)" style="fill:#000000; stroke:none; fill-opacity:1" cx="1284.25" cy="953.157" r="10"/>
<circle clip-path="url(#clip0902)" style="fill:#009af9; stroke:none; fill-opacity:1" cx="1284.25" cy="953.157" r="7"/>
<circle clip-path="url(#clip0902)" style="fill:#000000; stroke:none; fill-opacity:1" cx="1452.26" cy="898.976" r="10"/>
<circle clip-path="url(#clip0902)" style="fill:#009af9; stroke:none; fill-opacity:1" cx="1452.26" cy="898.976" r="7"/>
<circle clip-path="url(#clip0902)" style="fill:#000000; stroke:none; fill-opacity:1" cx="1564.26" cy="844.794" r="10"/>
<circle clip-path="url(#clip0902)" style="fill:#009af9; stroke:none; fill-opacity:1" cx="1564.26" cy="844.794" r="7"/>
<circle clip-path="url(#clip0902)" style="fill:#000000; stroke:none; fill-opacity:1" cx="1676.26" cy="953.157" r="10"/>
<circle clip-path="url(#clip0902)" style="fill:#009af9; stroke:none; fill-opacity:1" cx="1676.26" cy="953.157" r="7"/>
<circle clip-path="url(#clip0902)" style="fill:#000000; stroke:none; fill-opacity:1" cx="1620.26" cy="844.794" r="10"/>
<circle clip-path="url(#clip0902)" style="fill:#009af9; stroke:none; fill-opacity:1" cx="1620.26" cy="844.794" r="7"/>
<circle clip-path="url(#clip0902)" style="fill:#000000; stroke:none; fill-opacity:1" cx="1228.25" cy="898.976" r="10"/>
<circle clip-path="url(#clip0902)" style="fill:#009af9; stroke:none; fill-opacity:1" cx="1228.25" cy="898.976" r="7"/>
<circle clip-path="url(#clip0902)" style="fill:#000000; stroke:none; fill-opacity:1" cx="1060.25" cy="1061.52" r="10"/>
<circle clip-path="url(#clip0902)" style="fill:#009af9; stroke:none; fill-opacity:1" cx="1060.25" cy="1061.52" r="7"/>
<circle clip-path="url(#clip0902)" style="fill:#000000; stroke:none; fill-opacity:1" cx="948.248" cy="1169.88" r="10"/>
<circle clip-path="url(#clip0902)" style="fill:#009af9; stroke:none; fill-opacity:1" cx="948.248" cy="1169.88" r="7"/>
<circle clip-path="url(#clip0902)" style="fill:#000000; stroke:none; fill-opacity:1" cx="948.248" cy="1169.88" r="10"/>
<circle clip-path="url(#clip0902)" style="fill:#009af9; stroke:none; fill-opacity:1" cx="948.248" cy="1169.88" r="7"/>
<circle clip-path="url(#clip0902)" style="fill:#000000; stroke:none; fill-opacity:1" cx="1116.25" cy="1007.34" r="10"/>
<circle clip-path="url(#clip0902)" style="fill:#009af9; stroke:none; fill-opacity:1" cx="1116.25" cy="1007.34" r="7"/>
<circle clip-path="url(#clip0902)" style="fill:#000000; stroke:none; fill-opacity:1" cx="1228.25" cy="1007.34" r="10"/>
<circle clip-path="url(#clip0902)" style="fill:#009af9; stroke:none; fill-opacity:1" cx="1228.25" cy="1007.34" r="7"/>
<circle clip-path="url(#clip0902)" style="fill:#000000; stroke:none; fill-opacity:1" cx="892.247" cy="844.794" r="10"/>
<circle clip-path="url(#clip0902)" style="fill:#009af9; stroke:none; fill-opacity:1" cx="892.247" cy="844.794" r="7"/>
<circle clip-path="url(#clip0902)" style="fill:#000000; stroke:none; fill-opacity:1" cx="1228.25" cy="628.069" r="10"/>
<circle clip-path="url(#clip0902)" style="fill:#009af9; stroke:none; fill-opacity:1" cx="1228.25" cy="628.069" r="7"/>
<circle clip-path="url(#clip0902)" style="fill:#000000; stroke:none; fill-opacity:1" cx="1620.26" cy="790.613" r="10"/>
<circle clip-path="url(#clip0902)" style="fill:#009af9; stroke:none; fill-opacity:1" cx="1620.26" cy="790.613" r="7"/>
<circle clip-path="url(#clip0902)" style="fill:#000000; stroke:none; fill-opacity:1" cx="1396.26" cy="1224.06" r="10"/>
<circle clip-path="url(#clip0902)" style="fill:#009af9; stroke:none; fill-opacity:1" cx="1396.26" cy="1224.06" r="7"/>
<circle clip-path="url(#clip0902)" style="fill:#000000; stroke:none; fill-opacity:1" cx="1004.25" cy="844.794" r="10"/>
<circle clip-path="url(#clip0902)" style="fill:#009af9; stroke:none; fill-opacity:1" cx="1004.25" cy="844.794" r="7"/>
<circle clip-path="url(#clip0902)" style="fill:#000000; stroke:none; fill-opacity:1" cx="948.248" cy="1115.7" r="10"/>
<circle clip-path="url(#clip0902)" style="fill:#009af9; stroke:none; fill-opacity:1" cx="948.248" cy="1115.7" r="7"/>
<circle clip-path="url(#clip0902)" style="fill:#000000; stroke:none; fill-opacity:1" cx="948.248" cy="1061.52" r="10"/>
<circle clip-path="url(#clip0902)" style="fill:#009af9; stroke:none; fill-opacity:1" cx="948.248" cy="1061.52" r="7"/>
<circle clip-path="url(#clip0902)" style="fill:#000000; stroke:none; fill-opacity:1" cx="1284.25" cy="844.794" r="10"/>
<circle clip-path="url(#clip0902)" style="fill:#009af9; stroke:none; fill-opacity:1" cx="1284.25" cy="844.794" r="7"/>
<circle clip-path="url(#clip0902)" style="fill:#000000; stroke:none; fill-opacity:1" cx="1116.25" cy="1061.52" r="10"/>
<circle clip-path="url(#clip0902)" style="fill:#009af9; stroke:none; fill-opacity:1" cx="1116.25" cy="1061.52" r="7"/>
<circle clip-path="url(#clip0902)" style="fill:#000000; stroke:none; fill-opacity:1" cx="668.243" cy="1224.06" r="10"/>
<circle clip-path="url(#clip0902)" style="fill:#009af9; stroke:none; fill-opacity:1" cx="668.243" cy="1224.06" r="7"/>
<circle clip-path="url(#clip0902)" style="fill:#000000; stroke:none; fill-opacity:1" cx="1004.25" cy="1007.34" r="10"/>
<circle clip-path="url(#clip0902)" style="fill:#009af9; stroke:none; fill-opacity:1" cx="1004.25" cy="1007.34" r="7"/>
<circle clip-path="url(#clip0902)" style="fill:#000000; stroke:none; fill-opacity:1" cx="1060.25" cy="844.794" r="10"/>
<circle clip-path="url(#clip0902)" style="fill:#009af9; stroke:none; fill-opacity:1" cx="1060.25" cy="844.794" r="7"/>
<circle clip-path="url(#clip0902)" style="fill:#000000; stroke:none; fill-opacity:1" cx="1060.25" cy="898.976" r="10"/>
<circle clip-path="url(#clip0902)" style="fill:#009af9; stroke:none; fill-opacity:1" cx="1060.25" cy="898.976" r="7"/>
<circle clip-path="url(#clip0902)" style="fill:#000000; stroke:none; fill-opacity:1" cx="1340.26" cy="898.976" r="10"/>
<circle clip-path="url(#clip0902)" style="fill:#009af9; stroke:none; fill-opacity:1" cx="1340.26" cy="898.976" r="7"/>
<circle clip-path="url(#clip0902)" style="fill:#000000; stroke:none; fill-opacity:1" cx="724.244" cy="1115.7" r="10"/>
<circle clip-path="url(#clip0902)" style="fill:#009af9; stroke:none; fill-opacity:1" cx="724.244" cy="1115.7" r="7"/>
<circle clip-path="url(#clip0902)" style="fill:#000000; stroke:none; fill-opacity:1" cx="1060.25" cy="953.157" r="10"/>
<circle clip-path="url(#clip0902)" style="fill:#009af9; stroke:none; fill-opacity:1" cx="1060.25" cy="953.157" r="7"/>
<circle clip-path="url(#clip0902)" style="fill:#000000; stroke:none; fill-opacity:1" cx="1396.26" cy="682.25" r="10"/>
<circle clip-path="url(#clip0902)" style="fill:#009af9; stroke:none; fill-opacity:1" cx="1396.26" cy="682.25" r="7"/>
<circle clip-path="url(#clip0902)" style="fill:#000000; stroke:none; fill-opacity:1" cx="1116.25" cy="1007.34" r="10"/>
<circle clip-path="url(#clip0902)" style="fill:#009af9; stroke:none; fill-opacity:1" cx="1116.25" cy="1007.34" r="7"/>
<circle clip-path="url(#clip0902)" style="fill:#000000; stroke:none; fill-opacity:1" cx="1844.27" cy="844.794" r="10"/>
<circle clip-path="url(#clip0902)" style="fill:#009af9; stroke:none; fill-opacity:1" cx="1844.27" cy="844.794" r="7"/>
<circle clip-path="url(#clip0902)" style="fill:#000000; stroke:none; fill-opacity:1" cx="1396.26" cy="898.976" r="10"/>
<circle clip-path="url(#clip0902)" style="fill:#009af9; stroke:none; fill-opacity:1" cx="1396.26" cy="898.976" r="7"/>
<circle clip-path="url(#clip0902)" style="fill:#000000; stroke:none; fill-opacity:1" cx="1508.26" cy="844.794" r="10"/>
<circle clip-path="url(#clip0902)" style="fill:#009af9; stroke:none; fill-opacity:1" cx="1508.26" cy="844.794" r="7"/>
<circle clip-path="url(#clip0902)" style="fill:#000000; stroke:none; fill-opacity:1" cx="2124.27" cy="844.794" r="10"/>
<circle clip-path="url(#clip0902)" style="fill:#009af9; stroke:none; fill-opacity:1" cx="2124.27" cy="844.794" r="7"/>
<circle clip-path="url(#clip0902)" style="fill:#000000; stroke:none; fill-opacity:1" cx="612.242" cy="1115.7" r="10"/>
<circle clip-path="url(#clip0902)" style="fill:#009af9; stroke:none; fill-opacity:1" cx="612.242" cy="1115.7" r="7"/>
<circle clip-path="url(#clip0902)" style="fill:#000000; stroke:none; fill-opacity:1" cx="1956.27" cy="898.976" r="10"/>
<circle clip-path="url(#clip0902)" style="fill:#009af9; stroke:none; fill-opacity:1" cx="1956.27" cy="898.976" r="7"/>
<circle clip-path="url(#clip0902)" style="fill:#000000; stroke:none; fill-opacity:1" cx="1620.26" cy="1115.7" r="10"/>
<circle clip-path="url(#clip0902)" style="fill:#009af9; stroke:none; fill-opacity:1" cx="1620.26" cy="1115.7" r="7"/>
<circle clip-path="url(#clip0902)" style="fill:#000000; stroke:none; fill-opacity:1" cx="1900.27" cy="519.706" r="10"/>
<circle clip-path="url(#clip0902)" style="fill:#009af9; stroke:none; fill-opacity:1" cx="1900.27" cy="519.706" r="7"/>
<circle clip-path="url(#clip0902)" style="fill:#000000; stroke:none; fill-opacity:1" cx="1508.26" cy="736.431" r="10"/>
<circle clip-path="url(#clip0902)" style="fill:#009af9; stroke:none; fill-opacity:1" cx="1508.26" cy="736.431" r="7"/>
<circle clip-path="url(#clip0902)" style="fill:#000000; stroke:none; fill-opacity:1" cx="1452.26" cy="1007.34" r="10"/>
<circle clip-path="url(#clip0902)" style="fill:#009af9; stroke:none; fill-opacity:1" cx="1452.26" cy="1007.34" r="7"/>
<circle clip-path="url(#clip0902)" style="fill:#000000; stroke:none; fill-opacity:1" cx="1676.26" cy="844.794" r="10"/>
<circle clip-path="url(#clip0902)" style="fill:#009af9; stroke:none; fill-opacity:1" cx="1676.26" cy="844.794" r="7"/>
<circle clip-path="url(#clip0902)" style="fill:#000000; stroke:none; fill-opacity:1" cx="1060.25" cy="1115.7" r="10"/>
<circle clip-path="url(#clip0902)" style="fill:#009af9; stroke:none; fill-opacity:1" cx="1060.25" cy="1115.7" r="7"/>
<circle clip-path="url(#clip0902)" style="fill:#000000; stroke:none; fill-opacity:1" cx="1116.25" cy="953.157" r="10"/>
<circle clip-path="url(#clip0902)" style="fill:#009af9; stroke:none; fill-opacity:1" cx="1116.25" cy="953.157" r="7"/>
<circle clip-path="url(#clip0902)" style="fill:#000000; stroke:none; fill-opacity:1" cx="1452.26" cy="736.431" r="10"/>
<circle clip-path="url(#clip0902)" style="fill:#009af9; stroke:none; fill-opacity:1" cx="1452.26" cy="736.431" r="7"/>
<circle clip-path="url(#clip0902)" style="fill:#000000; stroke:none; fill-opacity:1" cx="1508.26" cy="844.794" r="10"/>
<circle clip-path="url(#clip0902)" style="fill:#009af9; stroke:none; fill-opacity:1" cx="1508.26" cy="844.794" r="7"/>
<circle clip-path="url(#clip0902)" style="fill:#000000; stroke:none; fill-opacity:1" cx="2180.27" cy="411.343" r="10"/>
<circle clip-path="url(#clip0902)" style="fill:#009af9; stroke:none; fill-opacity:1" cx="2180.27" cy="411.343" r="7"/>
<circle clip-path="url(#clip0902)" style="fill:#000000; stroke:none; fill-opacity:1" cx="2180.27" cy="1061.52" r="10"/>
<circle clip-path="url(#clip0902)" style="fill:#009af9; stroke:none; fill-opacity:1" cx="2180.27" cy="1061.52" r="7"/>
<circle clip-path="url(#clip0902)" style="fill:#000000; stroke:none; fill-opacity:1" cx="1228.25" cy="1278.25" r="10"/>
<circle clip-path="url(#clip0902)" style="fill:#009af9; stroke:none; fill-opacity:1" cx="1228.25" cy="1278.25" r="7"/>
<circle clip-path="url(#clip0902)" style="fill:#000000; stroke:none; fill-opacity:1" cx="1732.26" cy="736.431" r="10"/>
<circle clip-path="url(#clip0902)" style="fill:#009af9; stroke:none; fill-opacity:1" cx="1732.26" cy="736.431" r="7"/>
<circle clip-path="url(#clip0902)" style="fill:#000000; stroke:none; fill-opacity:1" cx="1004.25" cy="953.157" r="10"/>
<circle clip-path="url(#clip0902)" style="fill:#009af9; stroke:none; fill-opacity:1" cx="1004.25" cy="953.157" r="7"/>
<circle clip-path="url(#clip0902)" style="fill:#000000; stroke:none; fill-opacity:1" cx="2180.27" cy="953.157" r="10"/>
<circle clip-path="url(#clip0902)" style="fill:#009af9; stroke:none; fill-opacity:1" cx="2180.27" cy="953.157" r="7"/>
<circle clip-path="url(#clip0902)" style="fill:#000000; stroke:none; fill-opacity:1" cx="1396.26" cy="1007.34" r="10"/>
<circle clip-path="url(#clip0902)" style="fill:#009af9; stroke:none; fill-opacity:1" cx="1396.26" cy="1007.34" r="7"/>
<circle clip-path="url(#clip0902)" style="fill:#000000; stroke:none; fill-opacity:1" cx="1620.26" cy="682.25" r="10"/>
<circle clip-path="url(#clip0902)" style="fill:#009af9; stroke:none; fill-opacity:1" cx="1620.26" cy="682.25" r="7"/>
<circle clip-path="url(#clip0902)" style="fill:#000000; stroke:none; fill-opacity:1" cx="1900.27" cy="736.431" r="10"/>
<circle clip-path="url(#clip0902)" style="fill:#009af9; stroke:none; fill-opacity:1" cx="1900.27" cy="736.431" r="7"/>
<circle clip-path="url(#clip0902)" style="fill:#000000; stroke:none; fill-opacity:1" cx="1340.26" cy="953.157" r="10"/>
<circle clip-path="url(#clip0902)" style="fill:#009af9; stroke:none; fill-opacity:1" cx="1340.26" cy="953.157" r="7"/>
<circle clip-path="url(#clip0902)" style="fill:#000000; stroke:none; fill-opacity:1" cx="1284.25" cy="844.794" r="10"/>
<circle clip-path="url(#clip0902)" style="fill:#009af9; stroke:none; fill-opacity:1" cx="1284.25" cy="844.794" r="7"/>
<circle clip-path="url(#clip0902)" style="fill:#000000; stroke:none; fill-opacity:1" cx="1452.26" cy="953.157" r="10"/>
<circle clip-path="url(#clip0902)" style="fill:#009af9; stroke:none; fill-opacity:1" cx="1452.26" cy="953.157" r="7"/>
<circle clip-path="url(#clip0902)" style="fill:#000000; stroke:none; fill-opacity:1" cx="1900.27" cy="844.794" r="10"/>
<circle clip-path="url(#clip0902)" style="fill:#009af9; stroke:none; fill-opacity:1" cx="1900.27" cy="844.794" r="7"/>
<circle clip-path="url(#clip0902)" style="fill:#000000; stroke:none; fill-opacity:1" cx="2012.27" cy="953.157" r="10"/>
<circle clip-path="url(#clip0902)" style="fill:#009af9; stroke:none; fill-opacity:1" cx="2012.27" cy="953.157" r="7"/>
<circle clip-path="url(#clip0902)" style="fill:#000000; stroke:none; fill-opacity:1" cx="2292.27" cy="411.343" r="10"/>
<circle clip-path="url(#clip0902)" style="fill:#009af9; stroke:none; fill-opacity:1" cx="2292.27" cy="411.343" r="7"/>
<circle clip-path="url(#clip0902)" style="fill:#000000; stroke:none; fill-opacity:1" cx="1452.26" cy="953.157" r="10"/>
<circle clip-path="url(#clip0902)" style="fill:#009af9; stroke:none; fill-opacity:1" cx="1452.26" cy="953.157" r="7"/>
<circle clip-path="url(#clip0902)" style="fill:#000000; stroke:none; fill-opacity:1" cx="1396.26" cy="953.157" r="10"/>
<circle clip-path="url(#clip0902)" style="fill:#009af9; stroke:none; fill-opacity:1" cx="1396.26" cy="953.157" r="7"/>
<circle clip-path="url(#clip0902)" style="fill:#000000; stroke:none; fill-opacity:1" cx="1284.25" cy="1061.52" r="10"/>
<circle clip-path="url(#clip0902)" style="fill:#009af9; stroke:none; fill-opacity:1" cx="1284.25" cy="1061.52" r="7"/>
<circle clip-path="url(#clip0902)" style="fill:#000000; stroke:none; fill-opacity:1" cx="2180.27" cy="844.794" r="10"/>
<circle clip-path="url(#clip0902)" style="fill:#009af9; stroke:none; fill-opacity:1" cx="2180.27" cy="844.794" r="7"/>
<circle clip-path="url(#clip0902)" style="fill:#000000; stroke:none; fill-opacity:1" cx="1396.26" cy="628.069" r="10"/>
<circle clip-path="url(#clip0902)" style="fill:#009af9; stroke:none; fill-opacity:1" cx="1396.26" cy="628.069" r="7"/>
<circle clip-path="url(#clip0902)" style="fill:#000000; stroke:none; fill-opacity:1" cx="1452.26" cy="790.613" r="10"/>
<circle clip-path="url(#clip0902)" style="fill:#009af9; stroke:none; fill-opacity:1" cx="1452.26" cy="790.613" r="7"/>
<circle clip-path="url(#clip0902)" style="fill:#000000; stroke:none; fill-opacity:1" cx="1228.25" cy="844.794" r="10"/>
<circle clip-path="url(#clip0902)" style="fill:#009af9; stroke:none; fill-opacity:1" cx="1228.25" cy="844.794" r="7"/>
<circle clip-path="url(#clip0902)" style="fill:#000000; stroke:none; fill-opacity:1" cx="1732.26" cy="790.613" r="10"/>
<circle clip-path="url(#clip0902)" style="fill:#009af9; stroke:none; fill-opacity:1" cx="1732.26" cy="790.613" r="7"/>
<circle clip-path="url(#clip0902)" style="fill:#000000; stroke:none; fill-opacity:1" cx="1620.26" cy="790.613" r="10"/>
<circle clip-path="url(#clip0902)" style="fill:#009af9; stroke:none; fill-opacity:1" cx="1620.26" cy="790.613" r="7"/>
<circle clip-path="url(#clip0902)" style="fill:#000000; stroke:none; fill-opacity:1" cx="1732.26" cy="790.613" r="10"/>
<circle clip-path="url(#clip0902)" style="fill:#009af9; stroke:none; fill-opacity:1" cx="1732.26" cy="790.613" r="7"/>
<circle clip-path="url(#clip0902)" style="fill:#000000; stroke:none; fill-opacity:1" cx="1116.25" cy="1007.34" r="10"/>
<circle clip-path="url(#clip0902)" style="fill:#009af9; stroke:none; fill-opacity:1" cx="1116.25" cy="1007.34" r="7"/>
<circle clip-path="url(#clip0902)" style="fill:#000000; stroke:none; fill-opacity:1" cx="1676.26" cy="736.431" r="10"/>
<circle clip-path="url(#clip0902)" style="fill:#009af9; stroke:none; fill-opacity:1" cx="1676.26" cy="736.431" r="7"/>
<circle clip-path="url(#clip0902)" style="fill:#000000; stroke:none; fill-opacity:1" cx="1620.26" cy="682.25" r="10"/>
<circle clip-path="url(#clip0902)" style="fill:#009af9; stroke:none; fill-opacity:1" cx="1620.26" cy="682.25" r="7"/>
<circle clip-path="url(#clip0902)" style="fill:#000000; stroke:none; fill-opacity:1" cx="1620.26" cy="844.794" r="10"/>
<circle clip-path="url(#clip0902)" style="fill:#009af9; stroke:none; fill-opacity:1" cx="1620.26" cy="844.794" r="7"/>
<circle clip-path="url(#clip0902)" style="fill:#000000; stroke:none; fill-opacity:1" cx="1396.26" cy="1115.7" r="10"/>
<circle clip-path="url(#clip0902)" style="fill:#009af9; stroke:none; fill-opacity:1" cx="1396.26" cy="1115.7" r="7"/>
<circle clip-path="url(#clip0902)" style="fill:#000000; stroke:none; fill-opacity:1" cx="1508.26" cy="844.794" r="10"/>
<circle clip-path="url(#clip0902)" style="fill:#009af9; stroke:none; fill-opacity:1" cx="1508.26" cy="844.794" r="7"/>
<circle clip-path="url(#clip0902)" style="fill:#000000; stroke:none; fill-opacity:1" cx="1340.26" cy="628.069" r="10"/>
<circle clip-path="url(#clip0902)" style="fill:#009af9; stroke:none; fill-opacity:1" cx="1340.26" cy="628.069" r="7"/>
<circle clip-path="url(#clip0902)" style="fill:#000000; stroke:none; fill-opacity:1" cx="1172.25" cy="844.794" r="10"/>
<circle clip-path="url(#clip0902)" style="fill:#009af9; stroke:none; fill-opacity:1" cx="1172.25" cy="844.794" r="7"/>
<polyline clip-path="url(#clip0902)" style="stroke:#e26f46; stroke-width:8; stroke-opacity:1; fill:none" points="
  276.235,918.034 284.332,911.103 292.428,904.245 300.525,897.463 308.621,890.759 316.718,884.134 324.815,877.591 332.911,871.132 341.008,864.774 349.104,858.501 
  357.201,852.316 365.297,846.22 373.394,840.216 381.49,834.306 389.587,828.492 397.683,822.775 405.78,817.157 413.877,811.641 421.973,806.229 430.07,800.922 
  438.166,795.722 446.263,790.632 454.359,785.653 462.456,780.787 470.552,776.036 478.649,771.438 486.745,766.967 494.842,762.614 502.939,758.381 511.035,754.271 
  519.132,750.286 527.228,746.427 535.325,742.696 543.421,739.096 551.518,735.628 559.614,732.34 567.711,729.248 575.807,726.287 583.904,723.46 592,720.768 
  600.097,718.213 608.194,715.797 616.29,713.6 624.387,711.615 632.483,709.761 640.58,708.04 648.676,706.456 656.773,705.008 664.869,703.701 672.966,702.595 
  681.062,701.661 689.159,700.858 697.256,700.192 705.352,699.682 713.449,699.294 721.545,699.032 729.642,698.872 737.738,698.794 745.835,698.807 753.931,698.917 
  762.028,699.13 770.124,699.451 778.221,699.887 786.318,700.442 794.414,701.123 802.511,701.936 810.607,702.885 818.704,703.977 826.8,705.217 834.897,706.611 
  842.993,708.548 851.09,710.765 859.186,713.188 867.283,715.81 875.38,718.627 883.476,721.634 891.573,724.826 899.669,730.449 907.766,736.472 915.862,742.649 
  923.959,748.937 932.055,755.293 940.152,761.675 948.248,768.039 956.345,774.764 964.442,781.64 972.538,788.621 980.635,795.66 988.731,802.712 996.828,809.731 
  1004.92,816.642 1013.02,823.245 1021.12,829.952 1029.21,836.723 1037.31,843.517 1045.41,850.293 1053.5,857.012 1061.6,863.563 1069.7,869.786 1077.79,876.097 
  1085.89,882.458 1093.99,888.828 1102.08,895.17 1110.18,901.444 1118.28,906.868 1126.37,909.849 1134.47,912.574 1142.57,915.052 1150.66,917.292 1158.76,919.304 
  1166.86,921.095 1174.95,922.675 1183.05,924.054 1191.14,925.239 1199.24,926.241 1207.34,927.067 1215.43,927.728 1223.53,928.232 1231.63,928.491 1239.72,928.475 
  1247.82,928.329 1255.92,928.063 1264.01,927.686 1272.11,927.211 1280.21,926.646 1288.3,926.025 1296.4,925.327 1304.5,924.53 1312.59,923.643 1320.69,922.672 
  1328.79,921.627 1336.88,920.514 1344.98,919.229 1353.08,917.791 1361.17,916.283 1369.27,914.714 1377.37,913.092 1385.46,911.425 1393.56,909.721 1401.65,907.839 
  1409.75,905.816 1417.85,903.725 1425.94,901.575 1434.04,899.374 1442.14,897.131 1450.23,894.855 1458.33,892.382 1466.43,889.85 1474.52,887.329 1482.62,884.829 
  1490.72,882.36 1498.81,879.933 1506.91,877.559 1515.01,874.884 1523.1,872.194 1531.2,869.571 1539.3,867.028 1547.39,864.577 1555.49,862.23 1563.59,859.998 
  1571.68,857.761 1579.78,855.577 1587.88,853.463 1595.97,851.427 1604.07,849.478 1612.17,847.624 1620.26,845.874 1628.36,844.181 1636.45,842.515 1644.55,840.88 
  1652.65,839.277 1660.74,837.712 1668.84,836.186 1676.94,834.701 1685.03,833.216 1693.13,831.734 1701.23,830.257 1709.32,828.785 1717.42,827.319 1725.52,825.86 
  1733.61,824.408 1741.71,822.956 1749.81,821.496 1757.9,820.028 1766,818.554 1774.1,817.072 1782.19,815.583 1790.29,814.086 1798.39,812.581 1806.48,811.069 
  1814.58,809.549 1822.68,808.021 1830.77,806.486 1838.87,804.942 1846.96,803.39 1855.06,801.831 1863.16,800.263 1871.25,798.687 1879.35,797.102 1887.45,795.509 
  1895.54,793.908 1903.64,792.355 1911.74,790.878 1919.83,789.399 1927.93,787.918 1936.03,786.436 1944.12,784.952 1952.22,783.466 1960.32,781.977 1968.41,780.487 
  1976.51,778.995 1984.61,777.501 1992.7,776.005 2000.8,774.507 2008.9,773.006 2016.99,771.503 2025.09,769.998 2033.19,768.491 2041.28,766.981 2049.38,765.469 
  2057.47,763.954 2065.57,762.437 2073.67,760.917 2081.76,759.394 2089.86,757.869 2097.96,756.342 2106.05,754.811 2114.15,753.278 2122.25,751.741 2130.34,750.202 
  2138.44,748.66 2146.54,747.115 2154.63,745.612 2162.73,744.216 2170.83,742.818 2178.92,741.418 2187.02,740.016 2195.12,738.612 2203.21,737.205 2211.31,735.796 
  2219.41,734.385 2227.5,732.97 2235.6,731.553 2243.7,730.133 2251.79,728.71 2259.89,727.283 2267.99,725.853 2276.08,724.42 2284.18,722.983 2292.27,721.542 
  
  "/>
</svg>
